<mxfile host="app.diagrams.net" modified="2020-07-23T14:49:45.055Z" agent="5.0 (Windows NT 10.0; Win64; x64) AppleWebKit/537.36 (KHTML, like Gecko) Chrome/83.0.4103.116 Safari/537.36" etag="f4hs4yvxJIWjCHzwI3HZ" version="13.5.1" type="github">
  <diagram id="fmZKNqikNzJ8Yjd29Hfm" name="Page-1">
    <mxGraphModel dx="1422" dy="794" grid="1" gridSize="10" guides="1" tooltips="1" connect="1" arrows="1" fold="1" page="1" pageScale="1" pageWidth="1169" pageHeight="827" math="0" shadow="0">
      <root>
        <mxCell id="0" />
        <mxCell id="1" parent="0" />
        <mxCell id="OzDXqW2H4m5mfpJmxSqM-31" value="" style="rounded=1;whiteSpace=wrap;html=1;fillColor=none;" parent="1" vertex="1">
          <mxGeometry x="170" y="110" width="830" height="300" as="geometry" />
        </mxCell>
        <mxCell id="OzDXqW2H4m5mfpJmxSqM-7" value="" style="edgeStyle=orthogonalEdgeStyle;rounded=0;orthogonalLoop=1;jettySize=auto;html=1;" parent="1" source="OzDXqW2H4m5mfpJmxSqM-2" target="OzDXqW2H4m5mfpJmxSqM-6" edge="1">
          <mxGeometry relative="1" as="geometry" />
        </mxCell>
        <mxCell id="OzDXqW2H4m5mfpJmxSqM-2" value="" style="outlineConnect=0;fontColor=#232F3E;gradientColor=#F78E04;gradientDirection=north;fillColor=#D05C17;strokeColor=#ffffff;dashed=0;verticalLabelPosition=bottom;verticalAlign=top;align=center;html=1;fontSize=12;fontStyle=0;aspect=fixed;shape=mxgraph.aws4.resourceIcon;resIcon=mxgraph.aws4.lambda;" parent="1" vertex="1">
          <mxGeometry x="200" y="251" width="78" height="78" as="geometry" />
        </mxCell>
        <mxCell id="OzDXqW2H4m5mfpJmxSqM-4" value="Amazon Lambda" style="text;html=1;align=center;verticalAlign=middle;resizable=0;points=[];autosize=1;" parent="1" vertex="1">
          <mxGeometry x="185" y="340" width="110" height="20" as="geometry" />
        </mxCell>
        <mxCell id="OzDXqW2H4m5mfpJmxSqM-10" value="" style="edgeStyle=orthogonalEdgeStyle;rounded=0;orthogonalLoop=1;jettySize=auto;html=1;" parent="1" source="OzDXqW2H4m5mfpJmxSqM-6" target="OzDXqW2H4m5mfpJmxSqM-9" edge="1">
          <mxGeometry relative="1" as="geometry" />
        </mxCell>
        <mxCell id="M3nns8djloDuADblMPJM-3" value="" style="edgeStyle=orthogonalEdgeStyle;rounded=0;orthogonalLoop=1;jettySize=auto;html=1;" edge="1" parent="1" source="OzDXqW2H4m5mfpJmxSqM-6" target="M3nns8djloDuADblMPJM-1">
          <mxGeometry relative="1" as="geometry" />
        </mxCell>
        <mxCell id="OzDXqW2H4m5mfpJmxSqM-6" value="" style="outlineConnect=0;fontColor=#232F3E;gradientColor=#60A337;gradientDirection=north;fillColor=#277116;strokeColor=#ffffff;dashed=0;verticalLabelPosition=bottom;verticalAlign=top;align=center;html=1;fontSize=12;fontStyle=0;aspect=fixed;shape=mxgraph.aws4.resourceIcon;resIcon=mxgraph.aws4.s3;" parent="1" vertex="1">
          <mxGeometry x="360" y="251" width="78" height="78" as="geometry" />
        </mxCell>
        <mxCell id="OzDXqW2H4m5mfpJmxSqM-8" value="Amazon S3&lt;br&gt;(Raw/Landing Zone)" style="text;html=1;align=center;verticalAlign=middle;resizable=0;points=[];autosize=1;" parent="1" vertex="1">
          <mxGeometry x="340" y="335" width="120" height="30" as="geometry" />
        </mxCell>
        <mxCell id="OzDXqW2H4m5mfpJmxSqM-17" value="" style="edgeStyle=orthogonalEdgeStyle;rounded=0;orthogonalLoop=1;jettySize=auto;html=1;" parent="1" source="OzDXqW2H4m5mfpJmxSqM-9" target="OzDXqW2H4m5mfpJmxSqM-16" edge="1">
          <mxGeometry relative="1" as="geometry" />
        </mxCell>
        <mxCell id="OzDXqW2H4m5mfpJmxSqM-47" value="" style="edgeStyle=orthogonalEdgeStyle;rounded=0;orthogonalLoop=1;jettySize=auto;html=1;" parent="1" source="OzDXqW2H4m5mfpJmxSqM-9" target="OzDXqW2H4m5mfpJmxSqM-45" edge="1">
          <mxGeometry relative="1" as="geometry">
            <Array as="points">
              <mxPoint x="830" y="290" />
              <mxPoint x="830" y="164" />
            </Array>
          </mxGeometry>
        </mxCell>
        <mxCell id="OzDXqW2H4m5mfpJmxSqM-9" value="" style="outlineConnect=0;fontColor=#232F3E;gradientColor=#60A337;gradientDirection=north;fillColor=#277116;strokeColor=#ffffff;dashed=0;verticalLabelPosition=bottom;verticalAlign=top;align=center;html=1;fontSize=12;fontStyle=0;aspect=fixed;shape=mxgraph.aws4.resourceIcon;resIcon=mxgraph.aws4.s3;" parent="1" vertex="1">
          <mxGeometry x="730" y="251" width="78" height="78" as="geometry" />
        </mxCell>
        <mxCell id="OzDXqW2H4m5mfpJmxSqM-12" value="Amazon S3&lt;br&gt;(Staged Zone)" style="text;html=1;align=center;verticalAlign=middle;resizable=0;points=[];autosize=1;" parent="1" vertex="1">
          <mxGeometry x="724" y="335" width="90" height="30" as="geometry" />
        </mxCell>
        <mxCell id="OzDXqW2H4m5mfpJmxSqM-28" value="" style="edgeStyle=orthogonalEdgeStyle;rounded=0;orthogonalLoop=1;jettySize=auto;html=1;" parent="1" source="OzDXqW2H4m5mfpJmxSqM-16" target="OzDXqW2H4m5mfpJmxSqM-27" edge="1">
          <mxGeometry relative="1" as="geometry" />
        </mxCell>
        <mxCell id="OzDXqW2H4m5mfpJmxSqM-16" value="" style="outlineConnect=0;fontColor=#232F3E;gradientColor=#945DF2;gradientDirection=north;fillColor=#5A30B5;strokeColor=#ffffff;dashed=0;verticalLabelPosition=bottom;verticalAlign=top;align=center;html=1;fontSize=12;fontStyle=0;aspect=fixed;shape=mxgraph.aws4.resourceIcon;resIcon=mxgraph.aws4.athena;" parent="1" vertex="1">
          <mxGeometry x="870" y="251" width="78" height="78" as="geometry" />
        </mxCell>
        <mxCell id="OzDXqW2H4m5mfpJmxSqM-18" value="Amazon Athena" style="text;html=1;align=center;verticalAlign=middle;resizable=0;points=[];autosize=1;" parent="1" vertex="1">
          <mxGeometry x="859" y="340" width="100" height="20" as="geometry" />
        </mxCell>
        <mxCell id="OzDXqW2H4m5mfpJmxSqM-22" style="edgeStyle=orthogonalEdgeStyle;rounded=0;orthogonalLoop=1;jettySize=auto;html=1;" parent="1" source="OzDXqW2H4m5mfpJmxSqM-20" target="OzDXqW2H4m5mfpJmxSqM-2" edge="1">
          <mxGeometry relative="1" as="geometry" />
        </mxCell>
        <mxCell id="OzDXqW2H4m5mfpJmxSqM-20" value="CDPHE Data" style="outlineConnect=0;fontColor=#232F3E;gradientColor=none;fillColor=#232F3E;strokeColor=none;dashed=0;verticalLabelPosition=bottom;verticalAlign=top;align=center;html=1;fontSize=12;fontStyle=0;aspect=fixed;pointerEvents=1;shape=mxgraph.aws4.generic_database;" parent="1" vertex="1">
          <mxGeometry x="50" y="190" width="59" height="78" as="geometry" />
        </mxCell>
        <mxCell id="OzDXqW2H4m5mfpJmxSqM-23" style="edgeStyle=orthogonalEdgeStyle;rounded=0;orthogonalLoop=1;jettySize=auto;html=1;" parent="1" source="OzDXqW2H4m5mfpJmxSqM-21" target="OzDXqW2H4m5mfpJmxSqM-2" edge="1">
          <mxGeometry relative="1" as="geometry" />
        </mxCell>
        <mxCell id="OzDXqW2H4m5mfpJmxSqM-21" value="" style="outlineConnect=0;fontColor=#232F3E;gradientColor=none;fillColor=#232F3E;strokeColor=none;dashed=0;verticalLabelPosition=bottom;verticalAlign=top;align=center;html=1;fontSize=12;fontStyle=0;aspect=fixed;pointerEvents=1;shape=mxgraph.aws4.generic_database;" parent="1" vertex="1">
          <mxGeometry x="50" y="300" width="59" height="78" as="geometry" />
        </mxCell>
        <mxCell id="OzDXqW2H4m5mfpJmxSqM-24" value="ESRI Data" style="text;html=1;align=center;verticalAlign=middle;resizable=0;points=[];autosize=1;" parent="1" vertex="1">
          <mxGeometry x="45" y="390" width="70" height="20" as="geometry" />
        </mxCell>
        <mxCell id="OzDXqW2H4m5mfpJmxSqM-25" value="&lt;div style=&quot;text-align: left&quot;&gt;&lt;b&gt;Notes&lt;/b&gt;&lt;/div&gt;&lt;div style=&quot;text-align: left&quot;&gt;&lt;ul&gt;&lt;li&gt;Source data is in GeoJSON, JSON and Excel formats&lt;/li&gt;&lt;li&gt;Amazon Lambda script in Python pulls data daily&lt;/li&gt;&lt;li&gt;The raw data in the S3 bucket is transformed and filtered through S3 notifications and a Lambda script before being moved to a different folder in the S3 bucket&lt;/li&gt;&lt;li&gt;A glue crawler periodically looks at the data in the staged zone S3 bucket&lt;/li&gt;&lt;li&gt;Amazon Athena is used to query the data by end users&lt;/li&gt;&lt;li&gt;End users can be IT staff, healthcare workers or people working in the state&#39;s department&lt;/li&gt;&lt;/ul&gt;&lt;/div&gt;" style="text;html=1;strokeColor=none;fillColor=none;align=center;verticalAlign=middle;whiteSpace=wrap;rounded=0;" parent="1" vertex="1">
          <mxGeometry x="50" y="510" width="900" height="20" as="geometry" />
        </mxCell>
        <mxCell id="OzDXqW2H4m5mfpJmxSqM-27" value="End Users" style="outlineConnect=0;fontColor=#232F3E;gradientColor=none;fillColor=#232F3E;strokeColor=none;dashed=0;verticalLabelPosition=bottom;verticalAlign=top;align=center;html=1;fontSize=12;fontStyle=0;aspect=fixed;pointerEvents=1;shape=mxgraph.aws4.users;" parent="1" vertex="1">
          <mxGeometry x="1030" y="251" width="78" height="78" as="geometry" />
        </mxCell>
        <mxCell id="OzDXqW2H4m5mfpJmxSqM-40" value="" style="outlineConnect=0;dashed=0;verticalLabelPosition=bottom;verticalAlign=top;align=center;html=1;shape=mxgraph.aws3.cloud_2;fillColor=#F58534;gradientColor=none;" parent="1" vertex="1">
          <mxGeometry x="200" y="90" width="30" height="35" as="geometry" />
        </mxCell>
        <mxCell id="OzDXqW2H4m5mfpJmxSqM-42" style="edgeStyle=orthogonalEdgeStyle;rounded=0;orthogonalLoop=1;jettySize=auto;html=1;exitX=0.5;exitY=1;exitDx=0;exitDy=0;" parent="1" source="OzDXqW2H4m5mfpJmxSqM-31" target="OzDXqW2H4m5mfpJmxSqM-31" edge="1">
          <mxGeometry relative="1" as="geometry" />
        </mxCell>
        <mxCell id="OzDXqW2H4m5mfpJmxSqM-48" style="edgeStyle=orthogonalEdgeStyle;rounded=0;orthogonalLoop=1;jettySize=auto;html=1;" parent="1" source="OzDXqW2H4m5mfpJmxSqM-45" target="OzDXqW2H4m5mfpJmxSqM-9" edge="1">
          <mxGeometry relative="1" as="geometry">
            <Array as="points">
              <mxPoint x="690" y="164" />
              <mxPoint x="690" y="290" />
            </Array>
          </mxGeometry>
        </mxCell>
        <mxCell id="OzDXqW2H4m5mfpJmxSqM-45" value="Amazon Glue Crawler" style="outlineConnect=0;fontColor=#232F3E;gradientColor=#945DF2;gradientDirection=north;fillColor=#5A30B5;strokeColor=#ffffff;dashed=0;verticalLabelPosition=bottom;verticalAlign=top;align=center;html=1;fontSize=12;fontStyle=0;aspect=fixed;shape=mxgraph.aws4.resourceIcon;resIcon=mxgraph.aws4.glue;" parent="1" vertex="1">
          <mxGeometry x="720" y="125" width="78" height="78" as="geometry" />
        </mxCell>
        <mxCell id="M3nns8djloDuADblMPJM-6" value="" style="edgeStyle=orthogonalEdgeStyle;rounded=0;orthogonalLoop=1;jettySize=auto;html=1;" edge="1" parent="1" source="M3nns8djloDuADblMPJM-1" target="M3nns8djloDuADblMPJM-4">
          <mxGeometry relative="1" as="geometry" />
        </mxCell>
        <mxCell id="M3nns8djloDuADblMPJM-1" value="S3 Notifications" style="shape=image;html=1;verticalAlign=top;verticalLabelPosition=bottom;labelBackgroundColor=#ffffff;imageAspect=0;aspect=fixed;image=https://cdn0.iconfinder.com/data/icons/zondicons/20/notifications-128.png" vertex="1" parent="1">
          <mxGeometry x="360.5" y="125" width="79" height="79" as="geometry" />
        </mxCell>
        <mxCell id="M3nns8djloDuADblMPJM-7" style="edgeStyle=orthogonalEdgeStyle;rounded=0;orthogonalLoop=1;jettySize=auto;html=1;" edge="1" parent="1" source="M3nns8djloDuADblMPJM-4">
          <mxGeometry relative="1" as="geometry">
            <mxPoint x="569" y="290" as="targetPoint" />
            <Array as="points">
              <mxPoint x="569" y="290" />
            </Array>
          </mxGeometry>
        </mxCell>
        <mxCell id="M3nns8djloDuADblMPJM-4" value="" style="outlineConnect=0;fontColor=#232F3E;gradientColor=#F78E04;gradientDirection=north;fillColor=#D05C17;strokeColor=#ffffff;dashed=0;verticalLabelPosition=bottom;verticalAlign=top;align=center;html=1;fontSize=12;fontStyle=0;aspect=fixed;shape=mxgraph.aws4.resourceIcon;resIcon=mxgraph.aws4.lambda;" vertex="1" parent="1">
          <mxGeometry x="530" y="125" width="78" height="78" as="geometry" />
        </mxCell>
        <mxCell id="M3nns8djloDuADblMPJM-5" value="Amazon Lambda" style="text;html=1;align=center;verticalAlign=middle;resizable=0;points=[];autosize=1;" vertex="1" parent="1">
          <mxGeometry x="514" y="210" width="110" height="20" as="geometry" />
        </mxCell>
      </root>
    </mxGraphModel>
  </diagram>
</mxfile>
